<?xml version="1.0" encoding="utf-8"?>
<!-- Generator: Adobe Illustrator 18.1.1, SVG Export Plug-In . SVG Version: 6.00 Build 0)  -->
<svg version="1.1" id="Layer_1" xmlns="http://www.w3.org/2000/svg" xmlns:xlink="http://www.w3.org/1999/xlink" x="0px" y="0px"
	 viewBox="0 0 79.3 48" enable-background="new 0 0 79.3 48" xml:space="preserve">
<path fill="#FFFFFF" d="M75.9,14.2c0.1,0,0.3,0,0.7,0v8.6c-0.5-0.1-1-0.1-1.4-0.1c-0.4,0-0.7,0-1,0c-3.4,0-5.6,1.1-6.8,3.3
	c-0.6,1.2-1,3.1-1,5.7v15.3h-8.4V15h8v5.6c1.3-2.1,2.4-3.6,3.4-4.4c1.6-1.3,3.6-2,6.1-2C75.7,14.2,75.8,14.2,75.9,14.2z M26.1,15.2
	c1.6,0.7,2.9,1.7,4,3.1c0.9,1.2,1.4,2.4,1.6,3.7c0.2,1.3,0.3,3.3,0.3,6.2v18.8h-8.5V27.5c0-1.7-0.3-3.1-0.9-4.2
	c-0.8-1.5-2.2-2.2-4.3-2.2c-2.2,0-3.9,0.7-5,2.2s-1.7,3.6-1.7,6.3v17.3H3.2v-43h8.3v15.2c1.2-1.9,2.6-3.1,4.2-3.9
	c1.6-0.7,3.3-1.1,5-1.1C22.7,14.1,24.5,14.5,26.1,15.2z M53.1,15.6c2.2,1,4.1,2.6,5.5,4.7c1.3,1.9,2.2,4.1,2.5,6.6
	c0.2,1.5,0.3,3.6,0.3,6.3H38.2c0.1,3.2,1.2,5.4,3.3,6.7c1.3,0.8,2.8,1.2,4.6,1.2c1.9,0,3.4-0.5,4.6-1.5c0.6-0.5,1.2-1.3,1.7-2.2H61
	c-0.2,1.9-1.3,3.8-3.1,5.8C55,46.4,51,48,45.9,48c-4.2,0-8-1.3-11.2-3.9c-3.2-2.6-4.9-6.9-4.9-12.8c0-5.5,1.5-9.8,4.4-12.7
	c2.9-3,6.7-4.4,11.4-4.4C48.4,14.1,50.9,14.6,53.1,15.6z M40.6,22.8c-1.2,1.2-1.9,2.9-2.2,4.9h14.4c-0.2-2.2-0.9-3.9-2.2-5
	s-3-1.7-5-1.7C43.5,21,41.8,21.6,40.6,22.8z"/>
</svg>
